# xmcd CD database file
#
# Track frame offsets:
#	150
#	4050
#	24607
#	46027
#	66817
#	86777
#	92267
#	106765
#	129022
#	147382
#	168107
#	184727
#	205607
#	232920
#
# Disc length: 3381 seconds
#
# Revision: 4
# Processed by: cddbd v1.4PL0 Copyright (c) Steve Scherf et al.
# Submitted via: CDex 1.51
#
DISCID=9f0d330e
DTITLE=Bad Boy Records - We Invented The Remix
DYEAR=1900
DGENRE=
TTITLE0=Intro
TTITLE1=Special Delivery Remix - G Dep, Keith Murray, Ghostface Killah and Craig \n\nMack
TTITLE2=I Need A Girl (Part 2) - P.Diddy, Ginuwine, Loon, Mario Winans and Tammy \n\nRuggeri
TTITLE3=Bad Boy For Life Remix - P.Diddy, M.O.P. and Busta Rhymes
TTITLE4=I Need A Girl (Part 1) - P.Diddy, Usher and Loon
TTITLE5=The Remix Phenomenon Interlude
TTITLE6=Unfoolish - Ashanti and Notorious B.I.G.
TTITLE7=Dance With Me Remix - 112 and Beanie Sigel - Peaches and Cream Remix - 112 \n\n& Ludacris
TTITLE8=No More Drama Remix - Mary J. Blige and P.Diddy
TTITLE9=So Complete Remix - P.Diddy and Cheri Dennis
TTITLE10=Notorious BIG Remix - Notorious B.I.G., Lil Kim and P.Diddy
TTITLE11=That's Crazy - P.Diddy, Missy Elliot, G Dep and Snoop Dogg
TTITLE12=Woke Up In The Morning Remix - Carl Thomas and Notorious B.I.G.
TTITLE13=You Gets No Love Remix - G Dep and Faith Evans
EXTD=
EXTT0=
EXTT1=
EXTT2=
EXTT3=
EXTT4=
EXTT5=
EXTT6=
EXTT7=
EXTT8=
EXTT9=
EXTT10=
EXTT11=
EXTT12=
EXTT13=
PLAYORDER=
